<svg width="21" height="20" viewBox="0 0 21 20" fill="none" xmlns="http://www.w3.org/2000/svg">
<g clip-path="url(#clip0_3320_35)">
<path d="M4.78528 7.96378L6.05953 8.69841C6.59541 9.00591 7.28466 8.82216 7.59591 8.28591L9.46941 5.04103C9.61703 4.78231 9.65655 4.47578 9.57937 4.18807C9.5022 3.90037 9.31457 3.65477 9.05728 3.50466L7.78303 2.76966C8.23882 2.52166 8.7276 2.33983 9.23466 2.22966C9.48625 2.17571 9.71179 2.0373 9.87382 1.83741C10.0358 1.63753 10.1246 1.38821 10.1253 1.13091V1.12866C10.1253 0.403033 9.44953 -0.131342 8.74191 0.0291581C7.06566 0.407908 5.59078 1.32141 4.49691 2.57541C4.43101 2.26573 4.30091 1.9733 4.11502 1.717C3.92913 1.4607 3.69156 1.24623 3.41766 1.08741C1.70091 0.0700327 -0.45984 1.72228 0.0861595 3.64303C0.37791 4.83216 1.69791 5.59078 2.87053 5.25066C2.90428 5.24316 2.93803 5.22441 2.97178 5.21316C2.68094 6.0457 2.53138 6.92103 2.52928 7.80291C2.52928 8.62528 2.65528 9.41953 2.88816 10.1673C3.10378 10.8595 3.90291 11.1768 4.53103 10.8145L4.53553 10.8119C4.75817 10.6828 4.92994 10.4815 5.02231 10.2413C5.11468 10.0011 5.12208 9.73652 5.04328 9.49153C4.88639 8.99682 4.79955 8.48258 4.78528 7.96378ZM20.6894 1.91953C19.6807 0.125908 16.8963 0.579658 16.5033 2.57466C15.409 1.32103 13.9345 0.407533 12.2583 0.0284079C11.5503 -0.131342 10.8745 0.402658 10.8745 1.12828V1.13053C10.8745 1.66153 11.2465 2.11566 11.7652 2.22928C12.2714 2.34028 12.7612 2.52028 13.2168 2.76966L11.9429 3.50428C11.6856 3.65433 11.4979 3.89991 11.4206 4.18761C11.3434 4.47532 11.3828 4.78189 11.5304 5.04066L13.4043 8.28591C13.5544 8.54319 13.8 8.73082 14.0877 8.808C14.3754 8.88517 14.6819 8.84565 14.9407 8.69803L16.2149 7.96341C16.2007 8.48246 16.1139 8.99696 15.9569 9.49191C15.8781 9.73668 15.8853 10.001 15.9774 10.2411C16.0695 10.4812 16.2409 10.6826 16.4632 10.8119L16.4669 10.8142C17.095 11.1768 17.8942 10.8603 18.1105 10.1684C18.3445 9.42028 18.4705 8.62528 18.4705 7.80216C18.4705 6.89541 18.3097 6.02616 18.0288 5.21278C18.0625 5.22403 18.0963 5.24278 18.13 5.25028C20.041 5.79778 21.712 3.62803 20.6894 1.91953ZM13.498 12.6708V11.1978C13.4971 10.8999 13.3784 10.6144 13.1678 10.4038C12.9571 10.1932 12.6717 10.0744 12.3738 10.0735H8.62641C8.32851 10.0744 8.04307 10.1932 7.83243 10.4038C7.62178 10.6144 7.50305 10.8999 7.50216 11.1978V12.6708C7.05994 12.3954 6.65724 12.061 6.30516 11.677C6.13247 11.4872 5.90013 11.362 5.64658 11.3221C5.39303 11.2823 5.13349 11.3302 4.91091 11.458C4.29741 11.8117 4.14403 12.6505 4.62216 13.1725C5.77172 14.4317 7.29456 15.2894 8.96728 15.6198C8.7344 15.8316 8.54817 16.0896 8.42047 16.3774C8.29277 16.6651 8.22638 16.9763 8.22553 17.2912C8.33203 20.2994 12.6667 20.3024 12.7747 17.2912C12.7747 16.6315 12.4859 16.0357 12.0329 15.6198C13.7049 15.2898 15.2273 14.4329 16.3769 13.1748C16.8554 12.6532 16.7032 11.815 16.0904 11.4603C15.8677 11.3322 15.6073 11.2836 15.3535 11.3233C15.0998 11.363 14.8672 11.4882 14.6943 11.6782C14.3448 12.0584 13.9443 12.3929 13.498 12.6708Z" fill="#6A23FF"/>
</g>
<defs>
<clipPath id="clip0_3320_35">
<rect width="21" height="20" fill="white"/>
</clipPath>
</defs>
</svg>
