<?xml version="1.0" encoding="UTF-8"?><svg id="Layer_1" xmlns="http://www.w3.org/2000/svg" viewBox="0 0 24 24"><defs><style>.cls-1{fill:#6a23ff;stroke-width:0px;}</style></defs><path class="cls-1" d="M24,9.61s0,0,0,0v-.14c-.08-.03-.04-.09-.05-.14-.08-.66-.22-1.3-.45-1.93C21.66,2.21,15.4.15,10.85,3.23c-2.88,1.93-4.28,5.46-3.54,8.85.05.21.13.28.36.28,1.79-.01,3.59,0,5.38-.01.24,0,.31.04.31.29-.01,1.85-.01,3.7-.01,5.54,0,.16.03.23.2.27,1.05.25,2.11.3,3.19.15,3.6-.5,6.49-3.31,7.12-6.89.03-.2,0-.42.13-.6v-.23s0,0,0,0v-.14s0,0,0,0v-.93s0,0,0,0v-.18ZM21.18,10.94c-.22,0-.52.07-.65-.04-.15-.13-.04-.44-.05-.67,0-.22-.08-.52.04-.65.13-.15.43-.02.66-.05.23.03.54-.1.67.05.11.13.04.43.03.65-.01.23.1.54-.05.67-.12.11-.42.04-.65.04ZM14.89,16.53c-.11-.13-.03-.42-.03-.64.01-.24-.1-.56.04-.69.13-.12.45-.03.79-.03.11.02.41-.1.53.04.11.12.04.42.04.63-.01.24.1.56-.05.69-.13.12-.44.04-.67.04-.23-.01-.52.1-.65-.04ZM10.6,10.89c-.13.15-.43.03-.67.03-.22,0-.52.09-.65-.02-.14-.13-.04-.44-.04-.67-.01-.22-.08-.53.03-.65.13-.14.44-.04.67-.05.23,0,.53-.08.65.03.15.14.04.45.05.68,0,.22.08.52-.04.65ZM18.38,9.72c-.01.35-.01.7,0,1.05,0,.14-.04.17-.17.17-.53-.01-1.06,0-1.59,0s-1.04-.01-1.56,0c-.16,0-.2-.04-.2-.19.01-1.05.01-2.09,0-3.15,0-.15.04-.19.2-.19.35.01.7.01,1.05,0,.13,0,.17.04.16.17,0,.58,0,1.17,0,1.75-.01.16.04.2.19.2.58-.01,1.15,0,1.73-.01.15,0,.19.04.19.19ZM16.23,3.95c.11.12.03.41.03.63-.01.24.1.55-.05.69-.13.12-.44.03-.67.03s-.51.08-.63-.03c-.15-.13-.04-.42-.05-.65-.01-.23-.08-.54.04-.67.13-.16.45-.02.67-.06.23.03.53-.09.66.06Z"/><path class="cls-1" d="M15.25,20.8h-4.01c-.06,0-.13.03-.19-.04.58-.57.89-1.25.9-2.06v-4.75c0-.16-.05-.19-.21-.19H3.74c-.2-.01-.23.06-.22.23.01.33-.01.66,0,.98.01.15-.03.2-.19.2-.45-.01-.9-.02-1.35.01C.87,15.24.01,16.16,0,17.26c0,1.1.85,2.04,1.94,2.1.5.03,1,.02,1.5.02.09,0,.16,0,.2.11.14.49.41.9.82,1.3H.22c-.16-.01-.23.02-.22.21.02.31.02.62,0,.93-.01.21.05.27.26.27,3.9-.01,7.8-.01,11.69-.01,1.1,0,2.21,0,3.33.01.15,0,.2-.04.19-.2-.01-.33-.02-.67,0-1,.01-.19-.05-.22-.22-.21ZM3.49,17.94c-.12.14-.4.04-.61.05h-.72c-.44-.02-.74-.31-.74-.71s.31-.69.77-.7h.56c.25,0,.59-.09.72.03.16.15.04.49.05.75,0,.2.07.47-.03.58Z"/><path class="cls-1" d="M1.61,10.87c.38.09.76.06,1.14.07.47,0,.76.29.76.76,0,.16.01.32,0,.49-.01.12.03.16.15.16.37-.01.74-.01,1.1,0,.13,0,.16-.05.16-.16-.01-.2,0-.4-.01-.59-.04-.85-.44-1.47-1.2-1.86-.37-.19-.76-.21-1.16-.21-.18,0-.36.01-.54-.01-.35-.05-.6-.34-.6-.69s.26-.66.61-.68c.41-.03.83-.01,1.24-.01h0s.87,0,.87,0c1.16-.03,2.01-.71,2.16-1.83.1-.76,0-1.53.03-2.29,0-.12-.08-.1-.14-.1-.37,0-.74.01-1.1,0-.14-.01-.17.03-.17.17.01.59,0,1.18,0,1.78s-.25.86-.86.86c-.7,0-1.39-.02-2.09.02-1.01.05-1.86.89-1.95,1.9-.09,1.03.59,1.98,1.6,2.23Z"/></svg>