<svg width="24" height="24" viewBox="0 0 24 24" fill="none" xmlns="http://www.w3.org/2000/svg">
<g clip-path="url(#clip0_3317_2)">
<path d="M7.03125 20.6357C8.4937 21.5738 10.1921 22.0938 11.9531 22.0938C13.4308 22.0938 14.8411 21.7518 16.1472 21.0775L15.5017 19.8278C12.8028 21.2219 9.3818 20.8328 7.03125 18.8966V13.6562H0V20.6875H7.03125V20.6357ZM10.0255 5.49583L12 8.65473L16.7845 1H7.21547L9.25144 4.25734C6.02273 5.28072 3.55392 8.04437 2.9857 11.4308L4.37273 11.6629C4.87373 8.67672 7.12191 6.26495 10.0255 5.49583ZM16.9688 17.1719C16.9688 19.1103 18.5453 20.6875 20.4844 20.6875C22.4235 20.6875 24 19.1103 24 17.1719C24 15.4524 22.7575 14.0233 21.1239 13.721C21.1453 13.4645 21.1875 13.211 21.1875 12.9531C21.1875 9.75681 19.4819 6.74927 16.7367 5.10545L16.0143 6.31258C18.3379 7.70373 19.7812 10.2484 19.7812 12.9531C19.7812 13.2202 19.7424 13.4826 19.7154 13.7469C18.1462 14.0993 16.9688 15.4983 16.9688 17.1719Z" fill="#6A23FF"/>
</g>
<defs>
<clipPath id="clip0_3317_2">
<rect width="24" height="22" fill="white" transform="translate(0 1)"/>
</clipPath>
</defs>
</svg>
