<svg width="32" height="32" viewBox="0 0 32 32" fill="none" xmlns="http://www.w3.org/2000/svg">
<path d="M21.136 0.000102755H10.8C7.93696 0.00433488 5.1924 1.14354 3.16792 3.16801C1.14344 5.19248 0.00423214 7.93704 0 10.8001V21.2C0.00423214 24.0631 1.14344 26.8076 3.16792 28.8321C5.1924 30.8566 7.93696 31.9958 10.8 32H21.2C24.063 31.9958 26.8076 30.8566 28.8321 28.8321C30.8566 26.8076 31.9958 24.0631 32 21.2V10.8001C31.9979 9.37699 31.715 7.96832 31.1675 6.65478C30.62 5.34124 29.8187 4.14865 28.8095 3.14536C27.8002 2.14207 26.6029 1.3478 25.2861 0.80808C23.9694 0.268357 22.5591 -0.0062142 21.136 0.000102755ZM10.288 22.768C10.288 23.1075 10.1531 23.4331 9.9131 23.6731C9.67305 23.9132 9.34748 24.048 9.008 24.048C8.66852 24.048 8.34295 23.9132 8.1029 23.6731C7.86286 23.4331 7.728 23.1075 7.728 22.768V14.6081C7.728 14.2686 7.86286 13.943 8.1029 13.703C8.34295 13.4629 8.66852 13.3281 9.008 13.3281C9.34748 13.3281 9.67305 13.4629 9.9131 13.703C10.1531 13.943 10.288 14.2686 10.288 14.6081V22.768ZM17.408 22.768C17.408 22.9361 17.3749 23.1026 17.3106 23.2579C17.2462 23.4132 17.152 23.5543 17.0331 23.6731C16.9142 23.792 16.7731 23.8863 16.6178 23.9506C16.4625 24.0149 16.2961 24.048 16.128 24.048C15.9599 24.048 15.7935 24.0149 15.6382 23.9506C15.4829 23.8863 15.3418 23.792 15.2229 23.6731C15.104 23.5543 15.0098 23.4132 14.9454 23.2579C14.8811 23.1026 14.848 22.9361 14.848 22.768V9.24807C14.848 8.9086 14.9829 8.58302 15.2229 8.34298C15.463 8.10293 15.7885 7.96808 16.128 7.96808C16.4675 7.96808 16.793 8.10293 17.0331 8.34298C17.2731 8.58302 17.408 8.9086 17.408 9.24807V22.768ZM24.144 22.768C24.144 23.1075 24.0091 23.4331 23.7691 23.6731C23.5291 23.9132 23.2035 24.048 22.864 24.048C22.5245 24.048 22.199 23.9132 21.9589 23.6731C21.7189 23.4331 21.584 23.1075 21.584 22.768V12.5121C21.584 12.1726 21.7189 11.847 21.9589 11.607C22.199 11.3669 22.5245 11.2321 22.864 11.2321C23.2035 11.2321 23.5291 11.3669 23.7691 11.607C24.0091 11.847 24.144 12.1726 24.144 12.5121V22.768Z" fill="#6A23FF"/>
</svg>
