<svg width="32" height="24" viewBox="0 0 32 24" fill="none" xmlns="http://www.w3.org/2000/svg">
<path fill-rule="evenodd" clip-rule="evenodd" d="M4.59307 4.76407C7.1489 2.30317 10.9125 0 15.9994 0C21.0862 0 24.8499 2.30317 27.4057 4.76407C29.1957 6.50256 30.6777 8.53223 31.7886 10.7666C32.0705 11.3494 32.0705 12.0183 31.7886 12.5995C30.6783 14.8343 29.1968 16.8645 27.4072 18.6035C24.8499 21.0644 21.0862 23.3676 15.9994 23.3676C10.9125 23.3676 7.1489 21.0644 4.59307 18.6035C2.80303 16.8651 1.32103 14.8354 0.21018 12.601C0.0718557 12.3153 0 12.002 0 11.6845C0 11.3671 0.0718557 11.0538 0.21018 10.7681C1.32045 8.53328 2.80342 6.50311 4.59307 4.76407ZM15.9994 16.0652C17.1614 16.0652 18.2758 15.6036 19.0975 14.7819C19.9192 13.9603 20.3808 12.8458 20.3808 11.6838C20.3808 10.5218 19.9192 9.40735 19.0975 8.58567C18.2758 7.76399 17.1614 7.30238 15.9994 7.30238C14.8374 7.30238 13.7229 7.76399 12.9012 8.58567C12.0796 9.40735 11.618 10.5218 11.618 11.6838C11.618 12.8458 12.0796 13.9603 12.9012 14.7819C13.7229 15.6036 14.8374 16.0652 15.9994 16.0652Z" fill="#6A23FF"/>
</svg>
