<?xml version="1.0" encoding="UTF-8"?><svg id="Layer_1" xmlns="http://www.w3.org/2000/svg" viewBox="0 0 24 24"><defs><style>.cls-1{fill:#6a23ff;stroke-width:0px;}</style></defs><path class="cls-1" d="M23.98,11.86c-.13-4.48-2.14-7.94-5.99-10.21C13.66-.91,8.29-.44,4.4,2.75,1.93,4.79.5,7.41.1,10.6c-.03.22-.06.45-.09.67v1.5c.06.43.1.87.18,1.29.53,3,2.01,5.46,4.39,7.36,1.9,1.51,4.07,2.35,6.49,2.55.06,0,.12.03.18.04h1.5c.45-.06.9-.1,1.34-.19,3.14-.58,5.67-2.16,7.57-4.72,1.59-2.14,2.39-4.57,2.31-7.24ZM11.99,21.71c-5.36-.02-9.69-4.35-9.69-9.7,0-5.36,4.35-9.71,9.7-9.7,5.36,0,9.71,4.35,9.7,9.71,0,5.36-4.37,9.71-9.71,9.69Z"/><path class="cls-1" d="M20.27,11.31c-.16-1.76-.81-3.29-1.95-4.67-.3.31-.57.6-.83.87-.34-.33-.66-.66-1.01-1.01.28-.27.56-.55.86-.84-1.35-1.11-2.88-1.76-4.64-1.91v1.23h-1.41v-1.23c-1.75.16-3.28.81-4.66,1.95.31.29.61.56.88.82-.35.35-.67.67-1.01,1.01-.26-.27-.54-.56-.83-.86-1.13,1.36-1.77,2.89-1.93,4.65h1.23v1.41h-1.23c.16,1.76.8,3.28,1.95,4.67.29-.31.57-.61.83-.88.34.34.66.65.99.99-.28.27-.57.55-.87.85,1.37,1.13,2.9,1.78,4.66,1.94v-1.23h1.41v1.23c1.76-.17,3.29-.81,4.67-1.95-.31-.3-.6-.58-.88-.85.33-.33.65-.65,1-1,.27.29.56.58.85.89,1.12-1.37,1.77-2.89,1.92-4.66h-1.23v-1.4h1.23ZM7.77,12.47c-.33.33-.65.65-.99.98-.46-.49-.65-1.09-.55-1.78.1-.69.57-1.14,1.09-1.64h-.53v-1.39h2.91v2.92h-1.38v-.49c-.71.55-.89.86-.55,1.39ZM12.55,12.47c-.9.89-1.8,1.79-2.7,2.69-.06.06-.11.14-.16.21-.36-.36-.68-.68-1.07-1.07.07-.04.16-.06.22-.12.77-.76,1.53-1.53,2.3-2.29.12-.12.17-.24.16-.41,0-1.57,0-3.13,0-4.7v-.27h1.4v.24c0,1.78,0,3.56,0,5.33,0,.16-.05.27-.16.39ZM17.77,12.34c-.09.7-.57,1.15-1.08,1.65h.53v1.39h-2.92v-2.92h1.38v.47c.64-.29.85-.85.54-1.4.33-.33.64-.64.98-.98.48.51.67,1.1.57,1.79Z"/></svg>