<svg width="32" height="32" viewBox="0 0 32 32" fill="none" xmlns="http://www.w3.org/2000/svg">
<path d="M25.44 24.624C25.024 23.344 23.824 22.4 22.4 22.4H20.8V17.6C20.8 17.1757 20.6314 16.7687 20.3314 16.4686C20.0313 16.1686 19.6243 16 19.2 16H9.6V12.8H12.8C13.2243 12.8 13.6313 12.6314 13.9314 12.3314C14.2314 12.0313 14.4 11.6243 14.4 11.2V8H17.6C18.4487 8 19.2626 7.66286 19.8627 7.06274C20.4629 6.46263 20.8 5.64869 20.8 4.8V4.144C22.7144 4.91578 24.4132 6.13996 25.7511 7.71174C27.089 9.28351 28.0261 11.1561 28.4822 13.1691C28.9382 15.1822 28.8997 17.2758 28.3699 19.2707C27.8401 21.2657 26.8348 23.1025 25.44 24.624ZM14.4 28.688C8.08 27.904 3.2 22.528 3.2 16C3.2 15.008 3.328 14.048 3.536 13.136L11.2 20.8V22.4C11.2 23.2487 11.5371 24.0626 12.1373 24.6627C12.7374 25.2629 13.5513 25.6 14.4 25.6M16 0C13.8989 0 11.8183 0.413852 9.87706 1.21793C7.93586 2.022 6.17203 3.20055 4.68629 4.68629C1.68571 7.68687 0 11.7565 0 16C0 20.2435 1.68571 24.3131 4.68629 27.3137C6.17203 28.7994 7.93586 29.978 9.87706 30.7821C11.8183 31.5861 13.8989 32 16 32C20.2435 32 24.3131 30.3143 27.3137 27.3137C30.3143 24.3131 32 20.2435 32 16C32 13.8989 31.5861 11.8183 30.7821 9.87706C29.978 7.93586 28.7994 6.17203 27.3137 4.68629C25.828 3.20055 24.0641 2.022 22.1229 1.21793C20.1817 0.413852 18.1012 0 16 0Z" fill="#6A23FF"/>
</svg>
