<svg width="24" height="22" viewBox="0 0 24 22" fill="none" xmlns="http://www.w3.org/2000/svg">
<g clip-path="url(#clip0_3320_13)">
<path d="M3.75163 11.2993L2.26002 12.7908C1.84822 13.2026 1.84822 13.8704 2.26002 14.2824C2.672 14.6942 3.33979 14.6942 3.75158 14.2824L5.24314 12.7908C5.65518 12.3788 5.65518 11.7111 5.24314 11.2993C4.83135 10.8872 4.16366 10.8872 3.75163 11.2993ZM8.72343 16.2711L7.23186 17.7627C6.82007 18.1745 6.82007 18.8422 7.23186 19.2541C7.64366 19.6661 8.31144 19.6661 8.72343 19.2541L10.215 17.7627C10.6268 17.3507 10.6268 16.6829 10.215 16.2711C9.80305 15.8591 9.13546 15.8591 8.72343 16.2711ZM12.2038 20.7456L12.7009 20.2485C13.1129 19.8365 13.1129 19.1688 12.7009 18.757C12.2891 18.3451 11.6213 18.3451 11.2093 18.757L10.7121 19.2541C10.3003 19.6661 10.3003 20.3339 10.7121 20.7456C11.1239 21.1577 11.792 21.1577 12.2038 20.7456ZM7.23186 12.7908L4.74603 15.2767C4.334 15.6887 4.334 16.3565 4.74603 16.7683C5.15783 17.1801 5.82561 17.1801 6.23741 16.7683L8.72343 14.2824C9.13527 13.8704 9.13527 13.2026 8.72343 12.7909C8.31144 12.3788 7.64389 12.3787 7.23186 12.7908Z" fill="#6A23FF"/>
<path d="M8.97216 2.10094L7.16653 0.276328C6.89189 0.00164065 6.44677 0.00164065 6.17212 0.276328L0.206016 6.24244C-0.068672 6.51712 -0.068672 6.9622 0.206016 7.23689L1.42491 8.47467C1.81076 8.86066 2.10152 9.33112 2.27419 9.84886L2.50889 10.5531L2.75756 10.3044C3.71705 9.34514 5.27836 9.34514 6.23784 10.3044C6.54183 10.6086 6.73847 10.9757 6.8498 11.3624C7.77633 10.8829 8.94216 11.02 9.71813 11.796C10.4941 12.572 10.6313 13.7378 10.1517 14.6646C10.5384 14.7759 10.9056 14.9722 11.2097 15.2763C11.6968 15.7634 11.9339 16.4057 11.9264 17.0455C12.5663 17.0381 13.2085 17.2753 13.6956 17.7623L14.69 18.7566C15.1018 19.1686 15.7696 19.1686 16.1814 18.7566C16.5934 18.3448 16.5934 17.677 16.1814 17.265L14.4413 15.525C14.1667 15.2503 14.1667 14.8052 14.4413 14.5305C14.716 14.256 15.1612 14.256 15.4356 14.5305L17.1758 16.2707C17.5876 16.6826 18.2556 16.6826 18.6674 16.2707C19.0792 15.8589 19.0792 15.191 18.6674 14.7792L16.9272 13.0389C16.6527 12.7645 16.6527 12.3194 16.9272 12.0447C17.2019 11.77 17.6472 11.77 17.9216 12.0447L19.6619 13.7847C20.0737 14.1965 20.7414 14.1965 21.1534 13.7847C21.5653 13.3729 21.5653 12.7051 21.1534 12.2933L16.877 8.01694C15.5127 8.91905 13.6531 8.77041 12.4526 7.56994C12.1784 7.29567 11.7326 7.29567 11.4584 7.56994C10.0876 8.94066 7.85723 8.94066 6.48652 7.56994C5.664 6.74761 5.664 5.40928 6.48652 4.58695L8.97216 2.10094Z" fill="#6A23FF"/>
<path d="M17.8275 0.206016C17.5528 -0.068672 17.1077 -0.068672 16.833 0.206016L15.3459 1.69313C15.0848 1.95422 14.7307 2.10091 14.3615 2.10094H11.8343C11.2749 2.10096 10.7384 2.32319 10.3429 2.71875L7.48038 5.58122C7.20185 5.85975 7.20185 6.29719 7.48038 6.57567C8.30562 7.40095 9.63809 7.40095 10.4634 6.57567C11.2071 5.83191 12.3726 5.7607 13.1971 6.36202C14.306 7.17094 15.7848 7.22039 16.7554 6.24975L16.9268 6.07837L21.7644 10.916C21.8314 10.6683 21.8327 10.4061 21.7672 10.1627C21.6535 9.74105 21.8185 9.1417 22.1274 8.83284L23.7936 7.16658C24.0683 6.89189 24.0683 6.44677 23.7936 6.17231L17.8275 0.206016Z" fill="#6A23FF"/>
</g>
<defs>
<clipPath id="clip0_3320_13">
<rect width="24" height="22" fill="white"/>
</clipPath>
</defs>
</svg>
