<svg width="23" height="23" viewBox="0 0 23 23" fill="none" xmlns="http://www.w3.org/2000/svg">
<g clip-path="url(#clip0_3331_136)">
<path d="M22.5 9.375V13.125C22.5 14.1593 21.6593 15 20.625 15H20.115C19.3972 19.2495 15.7013 22.5 11.25 22.5C11.0511 22.5 10.8603 22.421 10.7197 22.2803C10.579 22.1397 10.5 21.9489 10.5 21.75C10.5 21.5511 10.579 21.3603 10.7197 21.2197C10.8603 21.079 11.0511 21 11.25 21C15.3855 21 18.75 17.6355 18.75 13.5V9C18.75 4.8645 15.3855 1.5 11.25 1.5C7.1145 1.5 3.75 4.8645 3.75 9V14.25C3.75 14.4489 3.67098 14.6397 3.53033 14.7803C3.38968 14.921 3.19891 15 3 15H1.875C1.37784 14.9996 0.901158 14.8019 0.549613 14.4504C0.198069 14.0988 0.000397251 13.6222 0 13.125V9.375C0 8.34075 0.84075 7.5 1.875 7.5H2.385C3.1035 3.2505 6.7995 0 11.25 0C15.7005 0 19.3972 3.2505 20.115 7.5H20.625C21.6593 7.5 22.5 8.34075 22.5 9.375ZM11.25 3C7.94175 3 5.25 5.69175 5.25 9V12.75C5.25 16.0583 7.94175 18.75 11.25 18.75C14.5582 18.75 17.25 16.0583 17.25 12.75V9C17.25 5.69175 14.5582 3 11.25 3Z" fill="#6A23FF"/>
</g>
<defs>
<clipPath id="clip0_3331_136">
<rect width="23" height="23" fill="white"/>
</clipPath>
</defs>
</svg>
