<svg width="24" height="24" viewBox="0 0 24 24" fill="none" xmlns="http://www.w3.org/2000/svg">
<g clip-path="url(#clip0_3330_133)">
<g clip-path="url(#clip1_3330_133)">
<path d="M11.4635 6.12827C8.21122 6.12827 5.58793 8.75157 5.58793 12.0038C5.58793 15.2561 8.21122 17.8795 11.4635 17.8795C14.7158 17.8795 17.339 15.2561 17.339 12.0038C17.339 8.75157 14.7158 6.12827 11.4635 6.12827ZM11.4635 15.8237C9.36179 15.8237 7.64361 14.1107 7.64361 12.0038C7.64361 9.89702 9.35667 8.18395 11.4635 8.18395C13.5704 8.18395 15.2834 9.89702 15.2834 12.0038C15.2834 14.1107 13.5652 15.8237 11.4635 15.8237ZM18.9499 5.88793C18.9499 6.64986 18.3362 7.25839 17.5795 7.25839C16.8175 7.25839 16.2089 6.64475 16.2089 5.88793C16.2089 5.13111 16.8226 4.51748 17.5795 4.51748C18.3362 4.51748 18.9499 5.13111 18.9499 5.88793ZM22.8413 7.27884C22.7544 5.44304 22.3351 3.81691 20.9902 2.47713C19.6504 1.13736 18.0243 0.718041 16.1885 0.625996C14.2965 0.518609 8.62543 0.518609 6.73339 0.625996C4.9027 0.712928 3.27657 1.13225 1.93167 2.47202C0.58679 3.81179 0.172585 5.43793 0.0805398 7.27373C-0.0268466 9.16577 -0.0268466 14.8368 0.0805398 16.7289C0.167472 18.5647 0.58679 20.1908 1.93167 21.5305C3.27657 22.8704 4.89758 23.2896 6.73339 23.3817C8.62543 23.489 14.2965 23.489 16.1885 23.3817C18.0243 23.2947 19.6504 22.8754 20.9902 21.5305C22.3299 20.1908 22.7493 18.5647 22.8413 16.7289C22.9487 14.8368 22.9487 9.17088 22.8413 7.27884ZM20.3971 18.7589C19.9981 19.7613 19.226 20.5334 18.2186 20.9374C16.7101 21.5356 13.1305 21.3976 11.4635 21.3976C9.79645 21.3976 6.21179 21.5305 4.70839 20.9374C3.70611 20.5385 2.93395 19.7663 2.52997 18.7589C1.93167 17.2504 2.06975 13.6708 2.06975 12.0038C2.06975 10.3368 1.93679 6.75213 2.52997 5.24872C2.92884 4.24645 3.701 3.4743 4.70839 3.07031C6.21691 2.47202 9.79645 2.61009 11.4635 2.61009C13.1305 2.61009 16.7152 2.47713 18.2186 3.07031C19.2208 3.46918 19.9931 4.24134 20.3971 5.24872C20.9953 6.75725 20.8572 10.3368 20.8572 12.0038C20.8572 13.6708 20.9953 17.2556 20.3971 18.7589Z" fill="#6A23FF"/>
</g>
</g>
<defs>
<clipPath id="clip0_3330_133">
<rect width="24" height="24" fill="white"/>
</clipPath>
<clipPath id="clip1_3330_133">
<rect width="24" height="22.9091" fill="white" transform="translate(0 0.545456)"/>
</clipPath>
</defs>
</svg>
