<svg width="24" height="32" viewBox="0 0 24 32" fill="none" xmlns="http://www.w3.org/2000/svg">
<g clip-path="url(#clip0_3314_76)">
<path d="M23.76 0.41C23.76 0.27 23.76 0.14 23.76 0H0C0 9.81 0 19.62 0 29.44C0 29.69 0.07 29.86 0.27 30.01C1.11 30.66 1.93 31.34 2.76 32H2.82C3.4 31.51 3.99 31.03 4.59 30.53C5.2 31.04 5.79 31.52 6.38 32H6.44C7.03 31.52 7.62 31.03 8.24 30.53C8.84 31.03 9.42 31.52 10.01 32H10.07C10.67 31.52 11.26 31.04 11.88 30.54C12.49 31.03 13.09 31.52 13.69 32H13.75C14.33 31.51 14.92 31.02 15.51 30.53C16.13 31.04 16.72 31.52 17.31 32H17.37C17.96 31.52 18.55 31.03 19.16 30.53C19.76 31.03 20.34 31.52 20.93 32H20.99C21.83 31.33 22.66 30.65 23.5 29.99C23.69 29.84 23.74 29.69 23.74 29.47C23.74 19.78 23.74 10.1 23.74 0.41H23.76ZM5.65 3.78H18.12V5.61H5.65V3.78ZM6.55 25.2C6.15 24.8 5.73 24.37 5.33 23.97C9.27 20.03 13.24 16.06 17.18 12.12C17.57 12.51 18 12.94 18.41 13.35C14.5 17.26 10.53 21.23 6.56 25.19L6.55 25.2ZM5.09 14.66C5.09 13.12 6.37 11.86 7.9 11.86C9.44 11.86 10.7 13.11 10.71 14.66C10.71 16.21 9.42 17.51 7.89 17.48C6.35 17.45 5.08 16.18 5.09 14.66ZM15.83 25.44C14.28 25.41 13.04 24.14 13.06 22.6C13.08 21.05 14.36 19.79 15.88 19.82C17.42 19.84 18.69 21.13 18.67 22.64C18.65 24.2 17.36 25.47 15.82 25.44H15.83ZM19.99 9.35H3.77V7.52H19.99V9.35Z" fill="#6A23FF"/>
<path d="M7.91 15.61C8.43 15.6 8.83 15.18 8.83 14.66C8.83 14.14 8.41 13.74 7.88 13.75C7.36 13.75 6.95 14.18 6.96 14.69C6.97 15.2 7.41 15.62 7.91 15.61Z" fill="#6A23FF"/>
<path d="M15.86 21.69C15.35 21.69 14.94 22.11 14.94 22.63C14.94 23.15 15.34 23.56 15.86 23.57C16.38 23.57 16.82 23.14 16.81 22.62C16.81 22.11 16.37 21.69 15.87 21.7L15.86 21.69Z" fill="#6A23FF"/>
</g>
<defs>
<clipPath id="clip0_3314_76">
<rect width="23.76" height="32" fill="white"/>
</clipPath>
</defs>
</svg>
