<?xml version="1.0" encoding="utf-8"?>
<!-- Generator: Adobe Illustrator 28.2.0, SVG Export Plug-In . SVG Version: 6.00 Build 0)  -->
<svg version="1.1" id="Layer_1" xmlns="http://www.w3.org/2000/svg" xmlns:xlink="http://www.w3.org/1999/xlink" x="0px" y="0px"
	 viewBox="0 0 19 19" style="enable-background:new 0 0 19 19;" xml:space="preserve">
<style type="text/css">
	.st0{fill:#6A23FF;}
</style>
<path class="st0" d="M17.7,0C18.4,0,19,0.6,19,1.3v16.3c0,0.7-0.6,1.3-1.3,1.3H1.3C0.6,19,0,18.4,0,17.7V1.3C0,0.6,0.6,0,1.3,0H17.7
	z M2.8,7.1v9.1h2.9V7.1H2.8z M12.9,6.9c-2,0-2.8,1.5-2.8,1.5V7.1H7.4v9.1h2.9v-4.8c0-0.8,0.2-2,1.6-2c0.6,0,1.5,0.2,1.5,1.8v5h2.8
	v-5.7C16.2,7.8,14.7,6.9,12.9,6.9z M4.3,2.6c-0.9,0-1.6,0.7-1.6,1.6c0,0.9,0.7,1.6,1.6,1.6c0.9,0,1.6-0.7,1.6-1.6
	C5.9,3.3,5.2,2.6,4.3,2.6z"/>
</svg>
