<svg width="24" height="24" viewBox="0 0 24 24" fill="none" xmlns="http://www.w3.org/2000/svg">
<g clip-path="url(#clip0_3330_133)">
<g clip-path="url(#clip1_3330_133)">
<path d="M5.78969 2.90083C5.78969 4.50291 4.49362 5.80165 2.89485 5.80165C1.29607 5.80165 0 4.50291 0 2.90083C0 1.29874 1.29607 0 2.89485 0C4.49362 0 5.78969 1.29874 5.78969 2.90083Z" fill="#6A23FF"/>
<path d="M0.395874 7.93388H5.34433V24H0.395874V7.93388Z" fill="#6A23FF"/>
<path d="M13.3113 7.93388H8.36288V24H13.3113C13.3113 24 13.3113 18.9421 13.3113 15.7798C13.3113 13.8816 13.9163 11.9752 16.3299 11.9752C19.0576 11.9752 19.0412 14.4592 19.0285 16.3836C19.0119 18.899 19.0515 21.466 19.0515 24H24V15.5207C23.9581 10.1064 22.6413 7.61157 18.3093 7.61157C15.7366 7.61157 14.1419 8.86296 13.3113 9.99513V7.93388Z" fill="#6A23FF"/>
</g>
</g>
<defs>
<clipPath id="clip0_3330_133">
<rect width="24" height="24" fill="white"/>
</clipPath>
<clipPath id="clip1_3330_133">
<rect width="24" height="24" fill="white"/>
</clipPath>
</defs>
</svg>
