<?xml version="1.0" encoding="UTF-8"?><svg id="Layer_1" xmlns="http://www.w3.org/2000/svg" viewBox="0 0 341.62 119.78"><defs><style>.cls-1{fill:#1f2933;stroke-width:0px;}</style></defs><path class="cls-1" d="M7.77,0C5.56,0,3.71.74,2.23,2.23.74,3.72,0,5.56,0,7.77v78.75c0,2.21.72,4.06,2.16,5.54,1.45,1.49,3.23,2.23,5.35,2.23s4.06-.74,5.55-2.23c1.48-1.48,2.23-3.33,2.23-5.54V7.77c0-2.21-.7-4.05-2.11-5.54-1.4-1.49-3.2-2.23-5.41-2.23Z"/><path class="cls-1" d="M74.48,29.37c-5.23-3.01-11.07-4.52-17.52-4.52s-12.3,1.51-17.52,4.52c-5.23,3.02-9.39,7.18-12.49,12.49-3.11,5.31-4.65,11.45-4.65,18.41s1.54,13.11,4.65,18.41c3.1,5.32,7.26,9.46,12.49,12.43,5.22,2.97,11.06,4.46,17.52,4.46s12.29-1.49,17.52-4.46c5.22-2.97,9.38-7.11,12.48-12.43,3.1-5.3,4.66-11.44,4.66-18.41s-1.56-13.1-4.66-18.41c-3.1-5.31-7.26-9.47-12.48-12.49ZM73.71,71.42c-1.74,3.19-4.07,5.67-7.01,7.46-2.93,1.78-6.18,2.67-9.74,2.67s-6.82-.89-9.75-2.67c-2.93-1.79-5.27-4.27-7.01-7.46-1.74-3.18-2.61-6.9-2.61-11.15s.87-8.09,2.61-11.27c1.74-3.19,4.08-5.68,7.01-7.46,2.93-1.78,6.18-2.68,9.75-2.68s6.81.9,9.74,2.68c2.94,1.78,5.27,4.27,7.01,7.46,1.74,3.18,2.62,6.94,2.62,11.27s-.88,7.97-2.62,11.15Z"/><path class="cls-1" d="M222.86,26.12c-2.21,0-4.03.75-5.48,2.23-1.44,1.49-2.16,3.34-2.16,5.54v32.37c0,5.18-1.15,9.03-3.44,11.53-2.3,2.51-5.78,3.76-10.45,3.76s-8.03-1.25-10.32-3.76c-2.3-2.5-3.45-6.35-3.45-11.53v-32.37c0-2.2-.72-4.05-2.16-5.54-1.45-1.48-3.27-2.23-5.48-2.23s-4.04.75-5.48,2.23c-1.45,1.49-2.17,3.34-2.17,5.54v32.37c0,9.01,2.49,16.14,7.46,21.41,4.97,5.27,12.17,7.9,21.6,7.9s16.65-2.63,21.66-7.9c5.01-5.27,7.52-12.4,7.52-21.41v-32.37c0-2.2-.72-4.05-2.17-5.54-1.44-1.48-3.27-2.23-5.48-2.23Z"/><path class="cls-1" d="M339.84,39.31c-1.19-4.37-3.38-7.88-6.56-10.51-3.19-2.63-7.84-3.95-13.96-3.95-3.73,0-7.11.78-10.13,2.35-3.01,1.58-5.58,3.49-7.71,5.74-1.98,2.1-3.48,4.07-4.49,5.91-1.18-3.58-3-6.62-5.44-9.1-3.23-3.27-8.25-4.9-15.04-4.9-2.8,0-5.4.44-7.77,1.34-2.38.89-4.55,2.06-6.5,3.5-1.96,1.44-3.62,2.99-4.97,4.65-.46.57-.89,1.12-1.28,1.66v-2.11c0-2.2-.72-4.05-2.16-5.54-1.45-1.48-3.27-2.23-5.48-2.23s-4.04.75-5.48,2.23c-1.45,1.49-2.17,3.34-2.17,5.54v52.63c0,2.21.72,4.06,2.17,5.54,1.44,1.49,3.27,2.23,5.48,2.23s4.03-.74,5.48-2.23c1.44-1.48,2.16-3.33,2.16-5.54v-32.62c0-2.8.58-5.33,1.72-7.58,1.15-2.25,2.87-4.06,5.16-5.42,2.3-1.35,5.06-2.04,8.29-2.04s5.86.69,7.64,2.04c1.79,1.36,3.02,3.17,3.7,5.42.68,2.25,1.02,4.78,1.02,7.58v32.62c0,2.21.72,4.06,2.16,5.54,1.45,1.49,3.27,2.23,5.48,2.23s4.04-.74,5.48-2.23c1.45-1.48,2.17-3.33,2.17-5.54v-32.62c0-2.8.57-5.33,1.72-7.58s2.86-4.06,5.16-5.42c2.29-1.35,5.05-2.04,8.28-2.04s5.86.69,7.65,2.04c1.78,1.36,3.01,3.17,3.69,5.42.68,2.25,1.02,4.78,1.02,7.58v32.62c0,2.21.72,4.06,2.17,5.54,1.44,1.49,3.27,2.23,5.48,2.23s4.03-.74,5.48-2.23c1.44-1.48,2.16-3.33,2.16-5.54v-32.62c0-5.35-.59-10.21-1.78-14.59Z"/><path class="cls-1" d="M154.44,26.12c-2.21,0-4.04.75-5.48,2.23-1.22,1.25-1.89,2.77-2.08,4.54-.78-.73-1.62-1.46-2.57-2.18-2.26-1.7-4.91-3.1-7.97-4.21-3.06-1.1-6.41-1.65-10.07-1.65-5.69,0-10.87,1.51-15.54,4.52-4.67,3.02-8.39,7.18-11.15,12.49s-4.14,11.45-4.14,18.41,1.38,12.98,4.14,18.29,6.52,9.47,11.28,12.48c4.75,3.02,10.06,4.53,15.92,4.53,3.23,0,6.23-.53,8.99-1.59,2.76-1.07,5.16-2.36,7.2-3.89,1.5-1.13,2.78-2.27,3.82-3.43v25.35c0,2.2.72,4.05,2.17,5.54,1.44,1.48,3.27,2.23,5.48,2.23s4.03-.75,5.47-2.23c1.45-1.49,2.17-3.34,2.17-5.54V33.89c0-2.29-.72-4.16-2.17-5.6-1.44-1.45-3.27-2.17-5.47-2.17ZM142.3,65.54h-8.34v8.33h-11.93v-8.33h-8.34v-11.93h8.34v-8.34h11.93v8.34h8.34v11.93Z"/></svg>