<?xml version="1.0" encoding="UTF-8"?><svg id="Layer_1" xmlns="http://www.w3.org/2000/svg" viewBox="0 0 48 16.83"><defs><style>.cls-1{fill:#fff;stroke-width:0px;}</style></defs><path class="cls-1" d="M1.09,0c-.31,0-.57.1-.78.31-.21.21-.31.47-.31.78v11.06c0,.31.1.57.3.78.2.21.45.31.75.31s.57-.1.78-.31c.21-.21.31-.47.31-.78V1.09c0-.31-.1-.57-.3-.78-.2-.21-.45-.31-.76-.31Z"/><path class="cls-1" d="M10.46,4.13c-.73-.42-1.56-.64-2.46-.64s-1.73.21-2.46.64c-.73.42-1.32,1.01-1.75,1.75-.44.75-.65,1.61-.65,2.59s.22,1.84.65,2.59c.44.75,1.02,1.33,1.75,1.75.73.42,1.55.63,2.46.63s1.73-.21,2.46-.63c.73-.42,1.32-1,1.75-1.75.44-.74.65-1.61.65-2.59s-.22-1.84-.65-2.59c-.44-.75-1.02-1.33-1.75-1.75ZM10.36,10.04c-.24.45-.57.8-.98,1.05-.41.25-.87.38-1.37.38s-.96-.13-1.37-.38c-.41-.25-.74-.6-.98-1.05-.24-.45-.37-.97-.37-1.57s.12-1.14.37-1.58c.24-.45.57-.8.98-1.05.41-.25.87-.38,1.37-.38s.96.13,1.37.38c.41.25.74.6.98,1.05.24.45.37.98.37,1.58s-.12,1.12-.37,1.57Z"/><path class="cls-1" d="M31.31,3.67c-.31,0-.57.11-.77.31-.2.21-.3.47-.3.78v4.55c0,.73-.16,1.27-.48,1.62-.32.35-.81.53-1.47.53s-1.13-.18-1.45-.53c-.32-.35-.48-.89-.48-1.62v-4.55c0-.31-.1-.57-.3-.78-.2-.21-.46-.31-.77-.31s-.57.11-.77.31c-.2.21-.3.47-.3.78v4.55c0,1.27.35,2.27,1.05,3.01.7.74,1.71,1.11,3.03,1.11s2.34-.37,3.04-1.11c.7-.74,1.06-1.74,1.06-3.01v-4.55c0-.31-.1-.57-.3-.78-.2-.21-.46-.31-.77-.31Z"/><path class="cls-1" d="M47.75,5.52c-.17-.61-.47-1.11-.92-1.48-.45-.37-1.1-.56-1.96-.56-.52,0-1,.11-1.42.33-.42.22-.78.49-1.08.81-.28.3-.49.57-.63.83-.17-.5-.42-.93-.76-1.28-.45-.46-1.16-.69-2.11-.69-.39,0-.76.06-1.09.19-.33.13-.64.29-.91.49-.28.2-.51.42-.7.65-.06.08-.13.16-.18.23v-.3c0-.31-.1-.57-.3-.78-.2-.21-.46-.31-.77-.31s-.57.11-.77.31c-.2.21-.3.47-.3.78v7.39c0,.31.1.57.3.78.2.21.46.31.77.31s.57-.1.77-.31c.2-.21.3-.47.3-.78v-4.58c0-.39.08-.75.24-1.07.16-.32.4-.57.73-.76.32-.19.71-.29,1.16-.29s.82.1,1.07.29c.25.19.42.45.52.76.1.32.14.67.14,1.07v4.58c0,.31.1.57.3.78.2.21.46.31.77.31s.57-.1.77-.31c.2-.21.3-.47.3-.78v-4.58c0-.39.08-.75.24-1.07s.4-.57.73-.76c.32-.19.71-.29,1.16-.29s.82.1,1.07.29c.25.19.42.45.52.76.1.32.14.67.14,1.07v4.58c0,.31.1.57.3.78.2.21.46.31.77.31s.57-.1.77-.31c.2-.21.3-.47.3-.78v-4.58c0-.75-.08-1.43-.25-2.05Z"/><path class="cls-1" d="M21.7,3.67c-.31,0-.57.11-.77.31-.17.18-.27.39-.29.64-.11-.1-.23-.21-.36-.31-.32-.24-.69-.44-1.12-.59-.43-.15-.9-.23-1.41-.23-.8,0-1.53.21-2.18.64-.66.42-1.18,1.01-1.57,1.75s-.58,1.61-.58,2.59.19,1.82.58,2.57.92,1.33,1.58,1.75c.67.42,1.41.64,2.24.64.45,0,.88-.07,1.26-.22.39-.15.73-.33,1.01-.55.21-.16.39-.32.54-.48v3.56c0,.31.1.57.3.78.2.21.46.31.77.31s.57-.11.77-.31c.2-.21.3-.47.3-.78V4.76c0-.32-.1-.58-.3-.79-.2-.2-.46-.3-.77-.3ZM19.99,9.21h-1.17v1.17h-1.68v-1.17h-1.17v-1.68h1.17v-1.17h1.68v1.17h1.17v1.68Z"/></svg>