<?xml version="1.0" encoding="UTF-8"?><svg id="Layer_1" xmlns="http://www.w3.org/2000/svg" viewBox="0 0 11.23 16"><defs><style>.cls-1{fill:#fff;stroke-width:0px;}</style></defs><path class="cls-1" d="M9.94.21c-.37,0-.68.13-.92.38-.21.21-.32.47-.35.77-.13-.12-.27-.25-.43-.37-.38-.29-.83-.52-1.34-.71-.52-.19-1.08-.28-1.7-.28-.96,0-1.83.25-2.62.76-.79.51-1.41,1.21-1.88,2.11s-.7,1.93-.7,3.1.23,2.19.7,3.08,1.1,1.6,1.9,2.1c.8.51,1.7.76,2.68.76.54,0,1.05-.09,1.52-.27.47-.18.87-.4,1.21-.66.25-.19.47-.38.64-.58v4.27c0,.37.12.68.37.93.24.25.55.38.92.38s.68-.13.92-.38c.24-.25.37-.56.37-.93V1.52c0-.39-.12-.7-.37-.94-.24-.24-.55-.37-.92-.37ZM7.9,6.86h-1.41v1.4h-2.01v-1.4h-1.41v-2.01h1.41v-1.41h2.01v1.41h1.41v2.01Z"/></svg>