<?xml version="1.0" encoding="utf-8"?>
<!-- Generator: Adobe Illustrator 28.2.0, SVG Export Plug-In . SVG Version: 6.00 Build 0)  -->
<svg version="1.1" id="Layer_1" xmlns="http://www.w3.org/2000/svg" xmlns:xlink="http://www.w3.org/1999/xlink" x="0px" y="0px"
	 viewBox="0 0 21 16.7" style="enable-background:new 0 0 21 16.7;" xml:space="preserve">
<style type="text/css">
	.st0{fill:#6A23FF;}
</style>
<path class="st0" d="M5.6,0h9.9c0.8,0,1.5,0,2,0c0.6,0,1,0.1,1.5,0.4c0.7,0.4,1.3,0.9,1.7,1.7C20.8,2.5,20.9,3,21,3.6
	c0,0.1,0,0.2,0,0.2c0,0.1,0,0.2,0,0.3c0,0.4,0,0.9,0,1.4v5.5c0,0.8,0,1.5,0,2c0,0.6-0.1,1-0.4,1.5c-0.4,0.7-0.9,1.3-1.7,1.7
	c-0.4,0.2-0.9,0.3-1.5,0.4c-0.5,0-1.2,0-2,0H5.6c-0.8,0-1.5,0-2,0c-0.6,0-1-0.1-1.5-0.4c-0.7-0.4-1.3-0.9-1.7-1.7
	c-0.2-0.4-0.3-0.9-0.4-1.5c0-0.5,0-1.2,0-2V5.6c0-0.5,0-1,0-1.4C0,4,0,3.9,0,3.8c0-0.1,0-0.2,0-0.2c0-0.6,0.1-1,0.4-1.5
	c0.4-0.7,0.9-1.3,1.7-1.7C2.5,0.2,3,0.1,3.6,0C4.1,0,4.8,0,5.6,0 M19.4,3.6c0-0.4-0.1-0.7-0.2-0.9c-0.2-0.4-0.6-0.8-1-1
	c-0.2-0.1-0.5-0.2-0.9-0.2c-0.5,0-1.1,0-1.9,0H5.6c-0.9,0-1.5,0-1.9,0C3.2,1.6,3,1.7,2.8,1.8C2.3,2,2,2.3,1.8,2.8
	C1.7,2.9,1.6,3.2,1.6,3.6l6.7,4.4c1,0.7,1.4,0.9,1.7,1c0.3,0.1,0.7,0.1,1.1,0c0.4-0.1,0.7-0.3,1.7-1L19.4,3.6z"/>
</svg>
