<svg width="30" height="32" viewBox="0 0 30 32" fill="none" xmlns="http://www.w3.org/2000/svg">
<g clip-path="url(#clip0_3314_80)">
<path d="M22.23 22.73C21.94 22.64 21.62 22.62 21.31 22.62C19.29 22.58 17.33 22.22 15.48 21.41C14.18 20.85 12.92 20.21 11.63 19.62C9.78 18.77 7.85 18.52 5.84 18.94C3.86 19.35 2.05 20.16 0.27 21.08C0.07 21.19 0 21.31 0 21.54C0 23.66 0 25.79 0 27.91C0 28.01 0.01 28.11 0.02 28.24C0.23 28.24 0.41 28.24 0.6 28.24C3.26 28.19 5.78 28.77 8.16 29.97C9.55 30.66 10.97 31.28 12.47 31.67C13.03 31.81 13.61 31.9 14.18 32.01H15.37C15.37 32.01 15.45 31.97 15.49 31.97C16.76 31.85 17.83 31.28 18.81 30.49C19.52 29.92 20.2 29.33 20.9 28.75C21.09 28.6 21.28 28.45 21.54 28.24C21.23 28.24 21.01 28.24 20.8 28.24C19.68 28.23 18.57 28.2 17.49 27.88C16.46 27.57 15.42 27.26 14.38 26.97C13.59 26.75 12.8 26.55 11.97 26.33C12.12 25.72 12.27 25.13 12.42 24.53C12.53 24.55 12.6 24.56 12.67 24.57C13.98 24.93 15.32 25.23 16.6 25.67C18.21 26.22 19.85 26.43 21.54 26.37C22.52 26.33 23.28 25.68 23.42 24.73C23.55 23.86 23.06 23 22.23 22.73Z" fill="#6A23FF"/>
<path d="M6.74999 7.61C7.37999 8.08 8.09999 8.4 8.84999 8.62C12.05 9.56 15.27 9.6 18.51 8.84C19.54 8.6 20.53 8.25 21.39 7.61C21.96 7.19 22.41 6.66 22.47 5.93C22.53 5.22 22.48 4.5 22.48 3.75H17.84C17.67 2.26 17.21 1.34 16.19 0.68C15.7 0.37 15.11 0.22 14.57 0H13.57C13.57 0 13.48 0.05 13.43 0.06C11.83 0.41 10.82 1.37 10.42 2.95C10.35 3.21 10.34 3.48 10.29 3.76H5.63999C5.63999 4.31 5.65999 4.84 5.63999 5.37C5.59999 6.33 6.01999 7.05 6.76999 7.61H6.74999ZM14.08 1.88C15.1 1.88 15.97 2.76 15.91 3.74H12.21C12.17 2.73 13.04 1.87 14.08 1.88Z" fill="#6A23FF"/>
<path d="M5.65 9.13V16.85H22.47V9.13C20.2 10.68 17.63 11.05 14.98 11.24V13.1H13.12V11.23C10.47 11.05 7.89 10.66 5.64 9.13H5.65Z" fill="#6A23FF"/>
<path d="M29.92 18.81C28.28 17.37 26.31 17.29 24.72 18.67C23.99 19.3 23.27 19.95 22.55 20.6C22.48 20.66 22.4 20.7 22.27 20.78C23.87 21.18 24.81 22.12 25.23 23.56C26.81 21.98 28.37 20.42 29.94 18.84C29.94 18.85 29.94 18.83 29.93 18.82L29.92 18.81Z" fill="#6A23FF"/>
</g>
<defs>
<clipPath id="clip0_3314_80">
<rect width="29.93" height="32" fill="white"/>
</clipPath>
</defs>
</svg>
