<svg width="18" height="23" viewBox="0 0 18 23" fill="none" xmlns="http://www.w3.org/2000/svg">
<g clip-path="url(#clip0_3331_141)">
<path d="M9 0C6.61387 0.00267987 4.32625 0.951752 2.639 2.639C0.951752 4.32625 0.00267987 6.61387 0 9C0 15.8602 8.41875 22.1617 8.77725 22.4265C8.84175 22.4741 8.91982 22.4998 9 22.4998C9.08018 22.4998 9.15825 22.4741 9.22275 22.4265C9.58125 22.1617 18 15.8602 18 9C17.9973 6.61387 17.0482 4.32625 15.361 2.639C13.6738 0.951752 11.3861 0.00267987 9 0ZM9 15.75C7.66498 15.75 6.35993 15.3541 5.2499 14.6124C4.13987 13.8707 3.2747 12.8165 2.76381 11.5831C2.25292 10.3497 2.11925 8.99251 2.3797 7.68314C2.64015 6.37377 3.28302 5.17103 4.22703 4.22703C5.17103 3.28302 6.37377 2.64015 7.68314 2.3797C8.99251 2.11925 10.3497 2.25292 11.5831 2.76381C12.8165 3.2747 13.8707 4.13987 14.6124 5.2499C15.3541 6.35993 15.75 7.66498 15.75 9C15.748 10.7896 15.0362 12.5053 13.7708 13.7708C12.5053 15.0362 10.7896 15.748 9 15.75ZM4.875 7.125V12.75C4.8753 12.8494 4.9149 12.9446 4.98516 13.0148C5.05542 13.0851 5.15064 13.1247 5.25 13.125H7.125V6.75H5.25C5.15064 6.7503 5.05542 6.7899 4.98516 6.86016C4.9149 6.93042 4.8753 7.02563 4.875 7.125ZM5.625 8.625C5.625 8.52554 5.66451 8.43016 5.73483 8.35983C5.80516 8.28951 5.90054 8.25 6 8.25C6.09946 8.25 6.19484 8.28951 6.26517 8.35983C6.33549 8.43016 6.375 8.52554 6.375 8.625V9C6.375 9.09946 6.33549 9.19484 6.26517 9.26516C6.19484 9.33549 6.09946 9.375 6 9.375C5.90054 9.375 5.80516 9.33549 5.73483 9.26516C5.66451 9.19484 5.625 9.09946 5.625 9V8.625ZM5.625 10.5C5.625 10.4005 5.66451 10.3052 5.73483 10.2348C5.80516 10.1645 5.90054 10.125 6 10.125C6.09946 10.125 6.19484 10.1645 6.26517 10.2348C6.33549 10.3052 6.375 10.4005 6.375 10.5V10.875C6.375 10.9745 6.33549 11.0698 6.26517 11.1402C6.19484 11.2105 6.09946 11.25 6 11.25C5.90054 11.25 5.80516 11.2105 5.73483 11.1402C5.66451 11.0698 5.625 10.9745 5.625 10.875V10.5ZM12.75 4.875H8.25C8.15063 4.8753 8.05542 4.9149 7.98516 4.98516C7.9149 5.05542 7.8753 5.15063 7.875 5.25V13.125H9.375V10.875C9.3753 10.7756 9.4149 10.6804 9.48516 10.6102C9.55542 10.5399 9.65063 10.5003 9.75 10.5H11.25C11.3494 10.5003 11.4446 10.5399 11.5148 10.6102C11.5851 10.6804 11.6247 10.7756 11.625 10.875V13.125H12.75C12.8494 13.1247 12.9446 13.0851 13.0148 13.0148C13.0851 12.9446 13.1247 12.8494 13.125 12.75V5.25C13.1247 5.15063 13.0851 5.05542 13.0148 4.98516C12.9446 4.9149 12.8494 4.8753 12.75 4.875ZM10.125 9C10.125 9.09946 10.0855 9.19484 10.0152 9.26516C9.94484 9.33549 9.84946 9.375 9.75 9.375C9.65054 9.375 9.55516 9.33549 9.48483 9.26516C9.41451 9.19484 9.375 9.09946 9.375 9V8.625C9.375 8.52554 9.41451 8.43016 9.48483 8.35983C9.55516 8.28951 9.65054 8.25 9.75 8.25C9.84946 8.25 9.94484 8.28951 10.0152 8.35983C10.0855 8.43016 10.125 8.52554 10.125 8.625V9ZM10.125 7.125C10.125 7.22446 10.0855 7.31984 10.0152 7.39016C9.94484 7.46049 9.84946 7.5 9.75 7.5C9.65054 7.5 9.55516 7.46049 9.48483 7.39016C9.41451 7.31984 9.375 7.22446 9.375 7.125V6.75C9.375 6.65054 9.41451 6.55516 9.48483 6.48483C9.55516 6.41451 9.65054 6.375 9.75 6.375C9.84946 6.375 9.94484 6.41451 10.0152 6.48483C10.0855 6.55516 10.125 6.65054 10.125 6.75V7.125ZM11.625 9C11.625 9.09946 11.5855 9.19484 11.5152 9.26516C11.4448 9.33549 11.3495 9.375 11.25 9.375C11.1505 9.375 11.0552 9.33549 10.9848 9.26516C10.9145 9.19484 10.875 9.09946 10.875 9V8.625C10.875 8.52554 10.9145 8.43016 10.9848 8.35983C11.0552 8.28951 11.1505 8.25 11.25 8.25C11.3495 8.25 11.4448 8.28951 11.5152 8.35983C11.5855 8.43016 11.625 8.52554 11.625 8.625V9ZM11.625 7.125C11.625 7.22446 11.5855 7.31984 11.5152 7.39016C11.4448 7.46049 11.3495 7.5 11.25 7.5C11.1505 7.5 11.0552 7.46049 10.9848 7.39016C10.9145 7.31984 10.875 7.22446 10.875 7.125V6.75C10.875 6.65054 10.9145 6.55516 10.9848 6.48483C11.0552 6.41451 11.1505 6.375 11.25 6.375C11.3495 6.375 11.4448 6.41451 11.5152 6.48483C11.5855 6.55516 11.625 6.65054 11.625 6.75V7.125Z" fill="#6A23FF"/>
</g>
<defs>
<clipPath id="clip0_3331_141">
<rect width="18" height="23" fill="white"/>
</clipPath>
</defs>
</svg>
