<svg width="64" height="64" viewBox="0 0 64 64" fill="none" xmlns="http://www.w3.org/2000/svg">
<g clip-path="url(#clip0_3305_2)">
<g clip-path="url(#clip1_3305_2)">
<path d="M64 32C64 14.3269 49.6731 0 32 0C14.3269 0 0 14.3269 0 32C0 49.6731 14.3269 64 32 64C49.6731 64 64 49.6731 64 32Z" fill="#6A23FF"/>
<path d="M50.85 34.29V32.6C50.85 30.8 49.7 29.25 47.98 28.73L39.7 26.22L39.8 25.32C40.04 23.14 39.34 20.94 37.87 19.31C36.4 17.67 34.3 16.73 32.1 16.73H31.99C29.78 16.73 27.66 17.68 26.19 19.35C24.72 21.01 24.03 23.22 24.3 25.43L24.39 26.19L16 28.74C14.28 29.26 13.13 30.82 13.13 32.61V34.79C13.13 35.26 13.48 35.67 13.95 35.74L25.06 37.34C25.4 37.39 25.74 37.25 25.95 36.98L29.3 32.66L31.11 37.62L33.44 44.03C33.57 44.39 33.9 44.64 34.29 44.66C34.68 44.69 35.03 44.47 35.21 44.13L39.32 35.86L48.92 37.24V38.57C48.92 39.51 48.31 40.33 47.41 40.61L39.92 42.89C39.61 42.98 39.37 43.22 39.28 43.53L37 51.02C36.72 51.92 35.91 52.53 34.96 52.53H29C28.06 52.53 27.24 51.92 26.96 51.02L24.68 43.53C24.59 43.22 24.35 42.99 24.04 42.89L16.55 40.61C15.65 40.34 15.04 39.52 15.04 38.57V37.15L13.13 36.87H13.12V38.57C13.12 40.36 14.27 41.92 15.99 42.44L22.99 44.57L25.12 51.57C25.64 53.28 27.2 54.44 28.99 54.44H31.03V54.46H32.96C32.96 54.46 32.96 54.45 32.96 54.44H34.96C36.75 54.44 38.31 53.29 38.83 51.57L40.96 44.57L47.96 42.44C49.68 41.92 50.83 40.36 50.83 38.57V36.41C50.83 35.93 50.48 35.53 50.01 35.46L38.9 33.86C38.49 33.8 38.09 34.01 37.9 34.39L34.48 41.27L32.91 36.97L30.51 30.37C30.39 30.04 30.1 29.8 29.76 29.75C29.41 29.7 29.07 29.83 28.85 30.11L24.78 35.36L15.05 33.96V32.61C15.05 31.67 15.66 30.85 16.56 30.57L29.21 26.73C29.72 26.58 30 26.04 29.85 25.53C29.7 25.02 29.16 24.74 28.65 24.89L26.25 25.62L26.2 25.19C26 23.54 26.51 21.87 27.62 20.62C28.72 19.37 30.31 18.66 31.98 18.66H32.09C33.74 18.66 35.32 19.36 36.43 20.59C37.53 21.82 38.06 23.47 37.88 25.11L37.61 27.59L47.41 30.57C48.31 30.84 48.92 31.66 48.92 32.61V34.02L50.84 34.3L50.85 34.29Z" fill="white"/>
<path d="M32 15.23C35.13 15.23 40.43 14.63 40.43 12.39C40.43 10.15 35.13 9.54999 32 9.54999C28.87 9.54999 23.57 10.15 23.57 12.39C23.57 14.63 28.87 15.23 32 15.23ZM32 11.01C36.08 11.01 38.63 11.89 38.95 12.39C38.63 12.89 36.07 13.77 32 13.77C27.93 13.77 25.37 12.89 25.05 12.39C25.37 11.89 27.93 11.01 32 11.01Z" fill="white"/>
</g>
</g>
<defs>
<clipPath id="clip0_3305_2">
<rect width="64" height="64" fill="white"/>
</clipPath>
<clipPath id="clip1_3305_2">
<rect width="64" height="64" fill="white"/>
</clipPath>
</defs>
</svg>
