<?xml version="1.0" encoding="UTF-8"?><svg id="Layer_1" xmlns="http://www.w3.org/2000/svg" viewBox="0 0 24 24"><defs><style>.cls-1{fill:#6a23ff;stroke-width:0px;}</style></defs><path class="cls-1" d="M23.99,22.59c-.24-.14-.5-.07-.75-.07-.44-.02-.44,0-.44-.44v-12.56c0-.48-.02-.5-.5-.5h-6.65c-.26,0-.48.07-.7.2-1.97,1.12-3.94,1.12-5.9,0-.23-.13-.44-.2-.7-.2H1.74c-.54,0-.55.01-.55.55v12.72c.01.15-.06.23-.22.22H.31c-.11,0-.22,0-.31.08C0,22.99.01,23.39,0,23.78c-.01.18.04.22.21.22,7.86-.01,15.72-.01,23.57-.01h.1c.1.02.12-.01.12-.11-.01-.43-.01-.86-.01-1.29ZM11.01,22.36c0,.18-.04.24-.23.23-.32-.01-.65-.01-.98,0-.17.01-.2-.04-.2-.2v-7.03c0-.74-.01-1.48,0-2.23,0-.16-.05-.2-.2-.2-1.27.01-2.53.01-3.8,0-.2,0-.22.07-.22.24,0,3.05,0,6.1.01,9.16,0,.2-.04.28-.26.26-.32-.02-.63-.01-.94,0-.18.01-.22-.04-.22-.21,0-1.78,0-3.55,0-5.32s0-3.55,0-5.32c0-.18.05-.21.22-.21h6.61c.18,0,.21.05.21.22-.01,3.54-.01,7.07,0,10.61ZM20.02,18.26c0,.19-.06.21-.22.21-1.08-.01-2.16,0-3.23,0s-2.19-.01-3.28,0c-.16,0-.21-.03-.21-.2.01-2.18,0-4.36,0-6.54,0-.16.03-.2.2-.2h6.54c.16,0,.2.03.2.2,0,2.18-.01,4.35,0,6.53Z"/><path class="cls-1" d="M9.96,8.2c1.64.86,3.28.71,4.74-.44,1.38-1.09,1.91-2.57,1.55-4.29-.35-1.68-1.42-2.78-3.07-3.3-.23-.07-.48-.11-.71-.17h-.94c-.03.06-.08.04-.12.05-2.03.26-3.67,2-3.76,4.05-.07,1.82.7,3.24,2.31,4.1ZM9.48,3.84c0-.15.04-.19.18-.18.47.01.94-.01,1.41,0,.2.01.23-.06.23-.24,0-.47,0-.94,0-1.41,0-.13.04-.17.17-.16.36,0,.72,0,1.08-.01.14,0,.17.05.16.18-.01.24,0,.48,0,.73s.01.5,0,.74c-.01.14.03.17.16.17.49-.01.97,0,1.46,0,.14-.01.2.02.2.18-.02.35-.01.71-.01,1.06.01.13-.03.17-.16.17-.47-.01-.94,0-1.41-.01-.22-.01-.25.06-.24.26.01.46-.01.92,0,1.38.01.14-.03.18-.18.18-.35-.01-.7-.01-1.05,0-.16.01-.18-.05-.18-.19,0-.48,0-.97,0-1.45,0-.14-.04-.18-.18-.18-.48.01-.95,0-1.43.01-.15,0-.22-.03-.21-.2.01-.34.01-.69,0-1.03Z"/><path class="cls-1" d="M7.22,7.57c-.48-.72-.8-1.5-.91-2.35-.02-.19-.1-.22-.27-.22-1.74.01-3.48.01-5.22.01-.27,0-.54,0-.82,0v2.67h7.25c.02-.06-.01-.09-.03-.12Z"/><path class="cls-1" d="M23.99,5.02c-.08,0-.17,0-.25,0-1.91,0-3.81,0-5.72-.01-.25,0-.32.08-.35.31-.1.73-.37,1.41-.76,2.04-.06.1-.12.21-.2.34h7.28v-2.67Z"/><path class="cls-1" d="M1.94,3.6h4.19c.12,0,.16-.04.19-.15.03-.2.07-.41.13-.61.14-.55.37-1.06.69-1.57H1.92c-.11,0-.14.03-.14.14.01.68.01,1.36,0,2.04,0,.12.04.15.16.15Z"/><path class="cls-1" d="M17.68,3.47c.02.13.1.13.2.13h4.17c.13,0,.17-.04.16-.17v-1.99c.01-.12-.01-.17-.16-.17h-5.19c.22.36.4.71.53,1.07.14.37.24.74.29,1.13Z"/><path class="cls-1" d="M18.42,12.93c-.62.01-1.24.01-1.85.01-.64,0-1.27,0-1.9-.01-.14,0-.19.03-.19.18.01,1.26.01,2.51.01,3.77-.01.14.03.18.17.18h3.77c.15,0,.19-.03.19-.18-.01-1.25-.01-2.51,0-3.76,0-.17-.07-.19-.2-.19Z"/></svg>