<?xml version="1.0" encoding="utf-8"?>
<!-- Generator: Adobe Illustrator 28.2.0, SVG Export Plug-In . SVG Version: 6.00 Build 0)  -->
<svg version="1.1" id="Layer_1" xmlns="http://www.w3.org/2000/svg" xmlns:xlink="http://www.w3.org/1999/xlink" x="0px" y="0px"
	 viewBox="0 0 31 31" style="enable-background:new 0 0 31 31;" xml:space="preserve">
<style type="text/css">
	.st0{fill:#6A23FF;}
</style>
<g>
	<path class="st0" d="M29,23.6c-1-3.5-4.1-6.2-7.7-6.6c-0.1,0-0.2-0.1-0.2,0.1c-0.2,0.7-0.6,1.2-1.1,1.7c-1.3,1.4-2.8,2.6-4.3,3.8
		c-0.2,0.1-0.2,0.1-0.3,0c-1.4-1.1-2.8-2.2-4.1-3.5c-0.5-0.5-0.9-1-1.2-1.6c-0.1-0.2,0-0.4-0.2-0.5c-0.2-0.1-0.4,0-0.6,0.1
		c-4.8,0.8-8.1,5.2-7.6,10c0.2,1.6,1,2.7,2.6,3.3c1.1,0.4,2.3,0.5,3.5,0.5c2.6,0,5.1,0,7.7,0c0,0,0,0,0,0c2.3,0,4.6,0,6.9,0
		c1.3,0,2.6,0,3.8-0.3c1.8-0.5,2.9-1.6,3.1-3.4C29.4,25.9,29.3,24.7,29,23.6z M25.1,26c0,0.3-0.1,0.4-0.4,0.4c-0.4,0-0.8,0-1.1,0
		c-0.2,0-0.2,0-0.2,0.2c0,0.4,0,0.8,0,1.2c0,0.2-0.1,0.4-0.4,0.4h-1.3c-0.2,0-0.3-0.1-0.3-0.3c0-0.4,0-0.7,0-1.1
		c0-0.3,0-0.4-0.3-0.4c-0.3,0-0.7,0-1,0c-0.3,0-0.4-0.1-0.4-0.4c0-0.4,0-0.8,0-1.2c0-0.3,0.1-0.4,0.4-0.4c0.4,0,0.8,0,1.2,0
		c0.2,0,0.3,0,0.2-0.2c0-0.4,0-0.8,0-1.2c0-0.2,0.1-0.4,0.4-0.4c0.2,0,0.4,0,0.6,0c0.2,0,0.4,0,0.6,0c0.3,0,0.4,0.1,0.4,0.4
		c0,0.4,0,0.8,0,1.2c0,0.2,0.1,0.2,0.2,0.2c0.4,0,0.7,0,1.1,0c0.3,0,0.4,0.1,0.4,0.4C25.1,25.2,25.1,25.6,25.1,26z"/>
	<path class="st0" d="M8.9,12.3c0.8,1.9,1.9,3.5,3.5,4.8c1.1,0.8,2.2,1.3,3.6,1.1c1.2-0.2,2.3-0.8,3.1-1.6c2.3-2.2,3.5-4.9,3.9-8.1
		C23.6,3.9,20,0,15.5,0c-0.5,0-1,0-1.6,0.2c-3.8,0.8-6.4,4.3-6.1,8.1C8,9.7,8.4,11,8.9,12.3z"/>
</g>
</svg>
