<?xml version="1.0" encoding="UTF-8"?><svg id="Layer_1" xmlns="http://www.w3.org/2000/svg" viewBox="0 0 24 24"><defs><style>.cls-1{fill:#6a23ff;stroke-width:0px;}</style></defs><rect class="cls-1" y="6.23" width="1.74" height="8.16"/><path class="cls-1" d="M20.35,14.87c-.51.24-1,.47-1.49.71-2.19,1.03-4.38,2.06-6.56,3.1-.17.08-.27.06-.42-.04-1.94-1.38-3.88-2.75-5.82-4.11-.12-.09-.3-.14-.45-.14-.72-.01-1.44,0-2.16,0h-.27V6.25c.08,0,.17-.01.25-.01.75,0,1.5,0,2.25,0,.17,0,.29-.04.41-.17.94-.95,1.89-1.89,2.83-2.84.11-.11.21-.16.36-.16,1.4,0,2.8,0,4.2,0,.64,0,.98.34.98.99,0,.25,0,.5,0,.77h-.38c-1.16,0-2.31,0-3.47,0-.12,0-.26.05-.35.13-1.21,1.19-2.41,2.39-3.6,3.6-.64.64-.84,1.42-.59,2.28.26.87.86,1.41,1.74,1.59.75.15,1.44-.03,1.99-.57.78-.75,1.54-1.53,2.31-2.3.11-.12.23-.16.39-.16.8,0,1.59,0,2.39,0,.1,0,.24.04.3.12,1.68,1.73,3.36,3.47,5.03,5.21.03.03.06.07.1.12Z"/><path class="cls-1" d="M20.83,6.24v7.06c-.08-.07-.13-.11-.17-.16-1.59-1.65-3.19-3.31-4.78-4.96-.12-.12-.23-.18-.4-.18-1.18,0-2.36,0-3.54,0-.16,0-.27.05-.39.16-.87.88-1.74,1.75-2.62,2.62-.36.36-.87.39-1.23.08-.4-.35-.42-.92-.02-1.32.91-.91,1.85-1.8,2.72-2.75.4-.43.81-.58,1.4-.58,2.91.03,5.81.01,8.72.01h.31Z"/><path class="cls-1" d="M10.98,19.73c-.23.31-.43.64-.68.93-.27.32-.71.35-1.11.12-.96-.56-1.91-1.12-2.87-1.67-.98-.57-1.95-1.14-2.93-1.71-.17-.09-.22-.2-.22-.39.01-.4,0-.79,0-1.22.4,0,.77.04,1.14,0,.78-.09,1.39.17,2.01.63,1.45,1.09,2.95,2.1,4.43,3.15.07.05.14.1.23.17Z"/><rect class="cls-1" x="22.27" y="6.25" width="1.73" height="8.13"/></svg>