<svg width="32" height="32" viewBox="0 0 32 32" fill="none" xmlns="http://www.w3.org/2000/svg">
<g clip-path="url(#clip0_3314_85)">
<path d="M20.67 20.17C22.38 18.61 24.42 17.96 26.73 18.13V14.5H16.18V16.97H10.56V14.48H10.25C6.93 14.48 3.61 14.48 0.28 14.48C0.19 14.48 0.09 14.49 0 14.5V26.06H18.09C18.12 23.7 18.96 21.73 20.67 20.17Z" fill="#6A23FF"/>
<path d="M10.15 12.6H10.58V10.1H16.2V12.58H26.75V5.09H20.01V0H6.75V5.1H6.37C4.38 5.1 2.39 5.1 0.4 5.1C0.27 5.1 0.13 5.12 0 5.12V12.62C0.12 12.62 0.25 12.6 0.37 12.6C3.63 12.6 6.89 12.6 10.14 12.6H10.15ZM8.64 1.9H18.11V5.07H8.64V1.9Z" fill="#6A23FF"/>
<path d="M31.94 25.23C31.52 21.89 28.41 19.54 25.08 20.05C22.42 20.46 20.4 22.52 20.01 25.22C19.65 27.78 21.08 30.38 23.5 31.44C24.09 31.7 24.75 31.81 25.37 32H26.62C26.97 31.92 27.33 31.86 27.67 31.75C30.09 30.95 31.52 29.29 31.94 26.77C31.95 26.68 31.98 26.59 32 26.5V25.44C31.98 25.37 31.95 25.3 31.94 25.23ZM26.91 26.9H22.78V25.07H25.05V21.56H26.91V26.9Z" fill="#6A23FF"/>
<path d="M14.3 11.98H12.46V15.09H14.3V11.98Z" fill="#6A23FF"/>
</g>
<defs>
<clipPath id="clip0_3314_85">
<rect width="32" height="32" fill="white"/>
</clipPath>
</defs>
</svg>
