<svg width="32" height="28" viewBox="0 0 32 28" fill="none" xmlns="http://www.w3.org/2000/svg">
<g clip-path="url(#clip0_3324_61)">
<path d="M23.66 23.16C23.61 23.2 23.56 23.24 23.51 23.27C20.65 25.49 17.43 26.32 13.86 25.69C8.33 24.72 4.18 19.9 4.06 14.29C4.01 11.88 4.04 9.47 4.04 7.06C4.04 6.99 4.06 6.91 4.07 6.84C4.1 6.82 4.13 6.8 4.16 6.79C4.4 7.05 4.63 7.31 4.83 7.52C5.28 7.07 5.71 6.64 6.08 6.26C5.09 5.27 4.06 4.24 3.03 3.21C2.13 4.12 1.19 5.05 0.250002 5.99C0.170002 6.07 0.0800017 6.13 -0.00999832 6.2V6.26C0.430002 6.7 0.880002 7.13 1.4 7.64C1.64 7.35 1.87 7.08 2.09 6.81C2.11 6.81 2.13 6.83 2.16 6.84V7.21C2.16 9.38 2.16 11.55 2.16 13.72C2.16 15.4 2.4 17.05 2.99 18.63C5.8 26.25 14.31 29.84 21.73 26.54C22.89 26.02 23.95 25.35 24.93 24.52C24.52 24.04 24.13 23.57 23.74 23.1C23.7 23.12 23.68 23.13 23.66 23.14V23.16Z" fill="#6A23FF"/>
<path d="M14.88 15.11C12.64 15.06 10.39 15.23 8.16 15V20.62H23.91V15.01C23.28 15.04 22.66 15.1 22.04 15.11C20.48 15.12 18.91 15.11 17.34 15.11H16.97V16.9H15.09V15.12C15.01 15.12 14.95 15.12 14.89 15.11H14.88Z" fill="#6A23FF"/>
<path d="M12.02 5.6V9.29H8.16C8.16 9.4 8.14 9.48 8.14 9.56C8.14 10.38 8.14 11.21 8.14 12.03C8.14 12.75 8.61 13.22 9.34 13.22C13.81 13.22 18.27 13.22 22.74 13.22C23.46 13.22 23.92 12.75 23.93 12.02C23.93 11.2 23.93 10.37 23.93 9.55C23.93 9.47 23.92 9.39 23.91 9.29H20.05V5.61H12.02V5.6ZM18.15 9.27H13.93V7.48H18.15V9.27Z" fill="#6A23FF"/>
<path d="M30.69 20.26C30.46 20.5 30.22 20.75 29.98 21.01C29.96 21 29.93 20.99 29.91 20.98V20.64C29.91 18.25 29.96 15.86 29.88 13.47C29.73 8.96 27.81 5.28 24.14 2.69C19.58 -0.540001 14.69 -0.800001 9.67 1.6C8.76 2.04 7.92 2.61 7.15 3.29C7.53 3.74 7.9 4.18 8.27 4.62C8.3 4.65 8.33 4.67 8.36 4.7C8.43 4.65 8.5 4.6 8.57 4.55C11.43 2.33 14.65 1.5 18.22 2.13C23.74 3.1 27.89 7.92 28.02 13.53C28.07 15.94 28.04 18.35 28.04 20.76C28.04 20.83 28.03 20.9 28.01 21.03C27.73 20.73 27.5 20.47 27.3 20.26C26.81 20.75 26.38 21.18 25.97 21.59C26.96 22.58 27.98 23.6 28.97 24.6C29.98 23.59 31 22.57 32 21.57C31.58 21.15 31.15 20.72 30.69 20.26Z" fill="#6A23FF"/>
</g>
<defs>
<clipPath id="clip0_3324_61">
<rect width="32" height="27.78" fill="white"/>
</clipPath>
</defs>
</svg>
