<svg width="24" height="24" viewBox="0 0 24 24" fill="none" xmlns="http://www.w3.org/2000/svg">
<g clip-path="url(#clip0_3320_40)">
<path d="M10 15C9.73478 15 9.48043 14.8946 9.29289 14.7071C9.10536 14.5196 9 14.2652 9 14V10C9 9.73478 9.10536 9.48043 9.29289 9.29289C9.48043 9.10536 9.73478 9 10 9H14C14.2652 9 14.5196 9.10536 14.7071 9.29289C14.8946 9.48043 15 9.73478 15 10V14C15 14.2652 14.8946 14.5196 14.7071 14.7071C14.5196 14.8946 14.2652 15 14 15H10ZM21 11C21 10.4696 20.7893 9.96086 20.4142 9.58579C20.0391 9.21071 19.5304 9 19 9H16.816C16.9345 9.32024 16.9967 9.65855 17 10V14C16.9992 14.7954 16.6829 15.558 16.1204 16.1204C15.558 16.6829 14.7954 16.9992 14 17H10C9.65856 16.9967 9.32026 16.9344 9 16.816V19C9 19.5304 9.21071 20.0391 9.58579 20.4142C9.96086 20.7893 10.4696 21 11 21H19C19.5304 21 20.0391 20.7893 20.4142 20.4142C20.7893 20.0391 21 19.5304 21 19V11ZM5 3C4.46957 3 3.96086 3.21071 3.58579 3.58579C3.21071 3.96086 3 4.46957 3 5V13C3 13.5304 3.21071 14.0391 3.58579 14.4142C3.96086 14.7893 4.46957 15 5 15H7.184C7.06556 14.6797 7.00331 14.3414 7 14V10C7.00079 9.20459 7.31712 8.44199 7.87956 7.87956C8.44199 7.31712 9.20459 7.00079 10 7H14C14.3414 7.00325 14.6798 7.0655 15 7.184V5C15 4.46957 14.7893 3.96086 14.4142 3.58579C14.0391 3.21071 13.5304 3 13 3H5Z" fill="#6A23FF"/>
</g>
<defs>
<clipPath id="clip0_3320_40">
<rect width="18" height="18" fill="white" transform="translate(3 3)"/>
</clipPath>
</defs>
</svg>
