<svg width="24" height="21" viewBox="0 0 24 21" fill="none" xmlns="http://www.w3.org/2000/svg">
<g clip-path="url(#clip0_3320_31)">
<path d="M17.1447 15.3313C15.7705 16.7055 13.9435 17.4623 12.0002 17.4623C10.0569 17.4623 8.22984 16.7055 6.8557 15.3313C6.61747 15.093 6.39602 14.8384 6.19294 14.5695H3.53011C3.86395 14.9145 4.1984 15.259 4.53347 15.6029L6.00281 18.426L9.14156 18.9527L11.9895 20.3737L14.8386 18.9555L17.9764 18.4289L19.4508 15.6093C19.4508 15.6093 20.0397 15.0046 20.4595 14.5695H17.8073C17.6043 14.8384 17.3829 15.093 17.1447 15.3313ZM6.8557 5.04234C8.22984 3.6682 10.0569 2.91141 12.0002 2.91141C13.9435 2.91141 15.7705 3.6682 17.1447 5.04234C17.3829 5.2807 17.6044 5.53526 17.8074 5.8042H20.4568C20.0385 5.37108 19.4535 4.77075 19.4535 4.77075L17.9841 1.94766L14.8454 1.42092L11.9975 0L9.14831 1.41811L6.0105 1.94475L4.53605 4.76438C4.53605 4.76438 3.9472 5.36902 3.52734 5.8042H6.19298C6.39603 5.53525 6.61747 5.28069 6.8557 5.04234Z" fill="#6A23FF"/>
<path d="M12 4.27148C10.4198 4.27148 8.93414 4.88686 7.81673 6.00427C5.51011 8.31094 5.51011 12.0641 7.81673 14.3708C8.93414 15.4882 10.4198 16.1036 12 16.1036C13.5802 16.1036 15.0659 15.4882 16.1833 14.3708C18.4899 12.0641 18.4899 8.31094 16.1833 6.00427C15.0659 4.88686 13.5802 4.27148 12 4.27148ZM11.0757 13.0669L8.65706 10.6482L9.65142 9.65386L11.0757 11.0782L14.3486 7.80534L15.3429 8.7997L11.0757 13.0669ZM18.6688 7.16428C19.5349 9.0802 19.5349 11.2949 18.6688 13.2108H24L23.0782 10.1875L24 7.16428H18.6688ZM5.33119 7.16428H0L0.876516 10.1875L0 13.2108H5.33119C4.46517 11.2949 4.46513 9.08016 5.33119 7.16428Z" fill="#6A23FF"/>
</g>
<defs>
<clipPath id="clip0_3320_31">
<rect width="24" height="21" fill="white"/>
</clipPath>
</defs>
</svg>
