<?xml version="1.0" encoding="UTF-8"?><svg id="Layer_1" xmlns="http://www.w3.org/2000/svg" viewBox="0 0 24 24"><defs><style>.cls-1{fill:#6a23ff;stroke-width:0px;}</style></defs><path class="cls-1" d="M23.91,13.66c-.31-1.37-1.47-2.31-2.88-2.31-1.24-.01-2.49-.01-3.74,0-.17,0-.21-.04-.21-.22.01-.89.01-1.78,0-2.67-.01-1.21-.75-2.11-1.91-2.3-.36-.06-.73-.02-1.09-.02-.53,0-.54,0-.53.53.02,1.77-.47,3.38-1.5,4.82-.51.72-1.18,1.31-1.79,1.94-.1.11-.2.15-.35.15-1.09,0-2.19,0-3.29,0-.17,0-.24.02-.24.22.01,2.48.01,4.96,0,7.45,0,.16.04.21.21.2.69-.01,1.38,0,2.08,0,.12,0,.22.02.33.08.6.38,1.22.72,1.8,1.12.43.29.86.4,1.37.39,2.58-.02,5.16,0,7.74-.01,1.46,0,2.6-.9,2.9-2.32.24-1.13.44-2.26.65-3.4.16-.87.32-1.75.47-2.62h.03s0-.01,0-.01v-.84s-.03,0-.04,0c-.01-.05-.01-.11-.02-.16Z"/><path class="cls-1" d="M23.1,2.23c-.08-.08-.13-.1-.23,0-.82.83-1.64,1.65-2.47,2.48-.12.11-.08.16.01.25.25.24.49.48.72.73.11.12.17.11.29,0,.79-.81,1.59-1.6,2.39-2.4.05-.05.09-.13.17-.15v-.04c-.29-.29-.59-.57-.88-.87Z"/><path class="cls-1" d="M4.71,13.57c-1.48,0-2.97,0-4.46,0-.17,0-.22.04-.22.22,0,1.5,0,3.01,0,4.52v4.52c0,.16.04.2.2.2,1.5-.01,2.99-.01,4.49,0,.15,0,.21-.03.21-.2-.01-3.02-.01-6.03,0-9.04,0-.19-.06-.22-.23-.22Z"/><path class="cls-1" d="M10.08,5.72c.09.09.14.08.22,0,.25-.27.51-.53.78-.78.09-.09.09-.14,0-.22-.84-.83-1.67-1.67-2.5-2.5-.03-.03-.07-.06-.1-.09-.03.02-.05.04-.08.06-.28.28-.56.57-.84.85-.09.08-.03.12.03.18.83.83,1.66,1.66,2.49,2.5Z"/><path class="cls-1" d="M15.42,2.39c.38-.01.76-.01,1.14,0,.11,0,.13-.05.13-.14-.01-.38-.01-.77,0-1.15,0-.1-.04-.13-.14-.13-.38.01-.76.01-1.14,0-.1,0-.13.04-.13.14.01.19,0,.37,0,.56v.56c0,.1.01.16.14.16Z"/></svg>