<?xml version="1.0" encoding="utf-8"?>
<!-- Generator: Adobe Illustrator 28.2.0, SVG Export Plug-In . SVG Version: 6.00 Build 0)  -->
<svg version="1.1" id="Layer_1" xmlns="http://www.w3.org/2000/svg" xmlns:xlink="http://www.w3.org/1999/xlink" x="0px" y="0px"
	 viewBox="0 0 21 19" style="enable-background:new 0 0 21 19;" xml:space="preserve">
<style type="text/css">
	.st0{fill-rule:evenodd;clip-rule:evenodd;fill:#6A23FF;}
</style>
<path class="st0" d="M18.5,4.5c0,0.2,0,0.4,0,0.6c0,6.1-4.3,13.1-12.1,13.1c-2.4,0-4.6-0.8-6.5-2.1c0.3,0,0.7,0.1,1,0.1
	c2,0,3.8-0.7,5.3-2c-1.9,0-3.4-1.4-4-3.2c0.3,0.1,0.5,0.1,0.8,0.1c0.4,0,0.8-0.1,1.1-0.2c-1.9-0.4-3.4-2.3-3.4-4.5c0,0,0,0,0-0.1
	C1.4,6.7,2.1,6.9,2.8,7C1.6,6.1,0.9,4.7,0.9,3.1c0-0.8,0.2-1.6,0.6-2.3c2.1,2.8,5.2,4.6,8.7,4.8c-0.1-0.3-0.1-0.7-0.1-1
	C10.1,2.1,12,0,14.3,0c1.2,0,2.3,0.6,3.1,1.4c1-0.2,1.9-0.6,2.7-1.1c-0.3,1.1-1,2-1.9,2.5c0.9-0.1,1.7-0.4,2.4-0.7
	C20.1,3.1,19.4,3.9,18.5,4.5z"/>
</svg>
