<svg width="32" height="32" viewBox="0 0 32 32" fill="none" xmlns="http://www.w3.org/2000/svg">
<g clip-path="url(#clip0_3317_2)">
<path fill-rule="evenodd" clip-rule="evenodd" d="M23.8745 1.35225C23.5568 0.844486 23.0886 0.448432 22.5352 0.219218C21.9817 -0.00999654 21.3706 -0.0609659 20.7869 0.0734061L16.6439 1.02505C16.2193 1.12264 15.7781 1.12264 15.3535 1.02505L11.2105 0.0734061C10.6268 -0.0609659 10.0157 -0.00999654 9.46225 0.219218C8.90884 0.448432 8.44065 0.844486 8.12287 1.35225L5.86473 4.95606C5.63431 5.32473 5.32323 5.6358 4.95456 5.86853L1.35075 8.12667C0.843866 8.44417 0.448392 8.9116 0.219227 9.46407C-0.0099374 10.0165 -0.0614256 10.6267 0.0719095 11.2097L1.02355 15.3573C1.12079 15.7812 1.12079 16.2215 1.02355 16.6454L0.0719095 20.7907C-0.0619438 21.3741 -0.0107147 21.9847 0.218475 22.5376C0.447664 23.0906 0.843428 23.5584 1.35075 23.876L4.95456 26.1342C5.32323 26.3646 5.63431 26.6757 5.86703 27.0443L8.12517 30.6481C8.77496 31.6874 10.0146 32.2012 11.2105 31.927L15.3535 30.9753C15.7781 30.8778 16.2193 30.8778 16.6439 30.9753L20.7892 31.927C21.3726 32.0608 21.9832 32.0096 22.5361 31.7804C23.0891 31.5512 23.5569 31.1555 23.8745 30.6481L26.1327 27.0443C26.3631 26.6757 26.6742 26.3646 27.0428 26.1342L30.649 23.876C31.1563 23.5579 31.5519 23.0896 31.7807 22.5362C32.0095 21.9828 32.0601 21.3719 31.9255 20.7884L30.9762 16.6454C30.8786 16.2208 30.8786 15.7796 30.9762 15.355L31.9278 11.2097C32.0619 10.6266 32.011 10.0161 31.7822 9.46319C31.5535 8.91027 31.1582 8.44233 30.6513 8.12436L27.0452 5.86623C26.677 5.63538 26.3658 5.32422 26.135 4.95606L23.8745 1.35225ZM22.7155 10.8618C22.858 10.5997 22.8933 10.2926 22.814 10.005C22.7347 9.71743 22.5469 9.47184 22.2902 9.31989C22.0335 9.16795 21.7278 9.12151 21.4376 9.19034C21.1473 9.25917 20.895 9.4379 20.7339 9.68893L14.7083 19.8874L11.07 16.4034C10.962 16.2926 10.8329 16.2047 10.6902 16.1448C10.5475 16.085 10.3943 16.0545 10.2396 16.0552C10.0849 16.0558 9.9319 16.0877 9.78976 16.1487C9.64762 16.2098 9.51924 16.2989 9.41227 16.4107C9.3053 16.5224 9.22194 16.6546 9.16715 16.7993C9.11237 16.944 9.08729 17.0982 9.0934 17.2528C9.09951 17.4074 9.13669 17.5591 9.20272 17.699C9.26876 17.8389 9.36229 17.9641 9.47775 18.0671L14.1645 22.558C14.29 22.678 14.4409 22.768 14.606 22.8215C14.7711 22.8749 14.9462 22.8903 15.1181 22.8666C15.2901 22.8429 15.4544 22.7807 15.5989 22.6845C15.7434 22.5884 15.8643 22.4609 15.9526 22.3115L22.7155 10.8618Z" fill="#6A23FF"/>
</g>
<defs>
<clipPath id="clip0_3317_2">
<rect width="32" height="32" fill="white"/>
</clipPath>
</defs>
</svg>
