<svg width="29" height="32" viewBox="0 0 29 32" fill="none" xmlns="http://www.w3.org/2000/svg">
<path fill-rule="evenodd" clip-rule="evenodd" d="M0 13.4672C0 8.3504 4.76837e-08 5.792 0.6048 4.9312C1.208 4.072 3.6128 3.248 8.424 1.6016L9.3408 1.288C11.848 0.4288 13.1008 0 14.4 0C15.6992 0 16.952 0.4288 19.4592 1.288L20.376 1.6016C25.1872 3.248 27.592 4.072 28.1952 4.9312C28.8 5.792 28.8 8.352 28.8 13.4672V15.9856C28.8 25.0064 22.0176 29.3856 17.7616 31.2432C16.608 31.7472 16.032 32 14.4 32C12.768 32 12.192 31.7472 11.0384 31.2432C6.7824 29.384 0 25.008 0 15.9856V13.4672ZM17.6 11.2C17.6 12.0487 17.2629 12.8626 16.6627 13.4627C16.0626 14.0629 15.2487 14.4 14.4 14.4C13.5513 14.4 12.7374 14.0629 12.1373 13.4627C11.5371 12.8626 11.2 12.0487 11.2 11.2C11.2 10.3513 11.5371 9.53737 12.1373 8.93726C12.7374 8.33714 13.5513 8 14.4 8C15.2487 8 16.0626 8.33714 16.6627 8.93726C17.2629 9.53737 17.6 10.3513 17.6 11.2ZM14.4 24C20.8 24 20.8 22.568 20.8 20.8C20.8 19.032 17.936 17.6 14.4 17.6C10.864 17.6 8 19.032 8 20.8C8 22.568 8 24 14.4 24Z" fill="#6A23FF"/>
</svg>
