<svg width="21" height="21" viewBox="0 0 21 21" fill="none" xmlns="http://www.w3.org/2000/svg">
<g clip-path="url(#clip0_3331_148)">
<path d="M15.75 12C14.86 12 13.99 12.2639 13.2499 12.7584C12.5099 13.2529 11.9331 13.9557 11.5925 14.7779C11.2519 15.6002 11.1628 16.505 11.3365 17.3779C11.5101 18.2508 11.9387 19.0526 12.568 19.682C13.1974 20.3113 13.9992 20.7399 14.8721 20.9135C15.745 21.0872 16.6498 20.9981 17.4721 20.6575C18.2943 20.3169 18.9971 19.7401 19.4916 19.0001C19.9861 18.26 20.25 17.39 20.25 16.5C20.2486 15.307 19.7741 14.1632 18.9304 13.3196C18.0868 12.4759 16.9431 12.0014 15.75 12ZM17.25 17.25H16.5V18C16.5 18.1989 16.421 18.3897 16.2803 18.5303C16.1397 18.671 15.9489 18.75 15.75 18.75C15.5511 18.75 15.3603 18.671 15.2197 18.5303C15.079 18.3897 15 18.1989 15 18V17.25H14.25C14.0511 17.25 13.8603 17.171 13.7197 17.0303C13.579 16.8897 13.5 16.6989 13.5 16.5C13.5 16.3011 13.579 16.1103 13.7197 15.9697C13.8603 15.829 14.0511 15.75 14.25 15.75H15V15C15 14.8011 15.079 14.6103 15.2197 14.4697C15.3603 14.329 15.5511 14.25 15.75 14.25C15.9489 14.25 16.1397 14.329 16.2803 14.4697C16.421 14.6103 16.5 14.8011 16.5 15V15.75H17.25C17.4489 15.75 17.6397 15.829 17.7803 15.9697C17.921 16.1103 18 16.3011 18 16.5C18 16.6989 17.921 16.8897 17.7803 17.0303C17.6397 17.171 17.4489 17.25 17.25 17.25Z" fill="#6A23FF"/>
<path d="M9.75 16.5001C9.752 15.0121 10.3061 13.5778 11.3049 12.4749C12.3037 11.372 13.6763 10.679 15.1567 10.5301C14.7785 10.0516 14.2966 9.6653 13.7473 9.40027C13.198 9.13523 12.5956 8.99839 11.9858 9.00005C11.8693 9.00005 11.7545 9.02716 11.6503 9.07923C11.5462 9.1313 11.4556 9.2069 11.3857 9.30005C10.1497 10.9328 6.3525 10.9328 5.1165 9.30005C5.0464 9.20716 4.95576 9.13175 4.85167 9.0797C4.74759 9.02766 4.63287 9.0004 4.5165 9.00005C3.50409 8.99495 2.52683 9.37099 1.77896 10.0534C1.0311 10.7358 0.567385 11.6747 0.48 12.6833L0 18.0001C0 18.7957 0.316071 19.5588 0.87868 20.1214C1.44129 20.684 2.20435 21.0001 3 21.0001H11.7945C11.1528 20.439 10.6384 19.7472 10.2858 18.9711C9.93315 18.195 9.75048 17.3525 9.75 16.5001Z" fill="#6A23FF"/>
<path d="M8.25 0C2.25 0 2.25 9 8.25 9C14.25 9 14.25 0 8.25 0Z" fill="#6A23FF"/>
</g>
<defs>
<clipPath id="clip0_3331_148">
<rect width="21" height="21" fill="white"/>
</clipPath>
</defs>
</svg>
