<svg width="25" height="32" viewBox="0 0 25 32" fill="none" xmlns="http://www.w3.org/2000/svg">
<path d="M24.1985 13.6562C24.1539 14.0289 24.0141 14.3839 23.7925 14.6868L11.3943 31.4416C11.1902 31.7143 10.8976 31.9075 10.5667 31.9881C10.4528 32.004 10.3372 32.004 10.2232 31.9881C10.009 31.9858 9.79719 31.9434 9.5986 31.8632C9.31327 31.7216 9.07807 31.4961 8.92456 31.217C8.77105 30.9379 8.70658 30.6185 8.73978 30.3017L9.98898 20.6049H1.97853C1.59012 20.5896 1.21282 20.471 0.885492 20.2613C0.569736 20.042 0.321076 19.7393 0.167207 19.3869C0.0283027 19.0458 -0.0252961 18.676 0.0110579 18.3095C0.0579026 17.941 0.198436 17.5912 0.417045 17.2945L12.8153 0.570968C13.0131 0.309093 13.2938 0.121955 13.6116 0.040062C13.941 -0.0360276 14.2862 -0.00315077 14.5954 0.133751C14.8907 0.270171 15.1324 0.500863 15.2824 0.789577C15.4204 1.0536 15.48 1.3516 15.4542 1.6484L14.205 11.3452H22.2311C22.623 11.3385 23.0065 11.459 23.3241 11.6888C23.627 11.9089 23.8706 12.2041 24.0268 12.5476C24.1767 12.8958 24.236 13.2768 24.1985 13.6562Z" fill="#6A23FF"/>
</svg>
